<mxfile host="app.diagrams.net" agent="Mozilla/5.0 (X11; CrOS x86_64 14541.0.0) AppleWebKit/537.36 (KHTML, like Gecko) Chrome/137.0.0.0 Safari/537.36" version="27.1.6">
  <diagram name="Page-1" id="AO9ToLhwt3iUrPs2mxdO">
    <mxGraphModel dx="946" dy="580" grid="1" gridSize="10" guides="1" tooltips="1" connect="1" arrows="1" fold="1" page="1" pageScale="1" pageWidth="850" pageHeight="1100" math="0" shadow="0">
      <root>
        <mxCell id="0" />
        <mxCell id="1" parent="0" />
        <mxCell id="dNZLmfn_dR03rivUmkf9-10" value="games.h" style="swimlane;fontStyle=0;align=center;verticalAlign=top;childLayout=stackLayout;horizontal=1;startSize=30;horizontalStack=0;resizeParent=1;resizeParentMax=0;resizeLast=0;collapsible=0;marginBottom=0;html=1;whiteSpace=wrap;" vertex="1" parent="1">
          <mxGeometry x="40" y="110" width="250" height="280" as="geometry" />
        </mxCell>
        <mxCell id="dNZLmfn_dR03rivUmkf9-12" value="- title : string&lt;div&gt;- releaseDate : string&lt;/div&gt;&lt;div&gt;- price : double&lt;/div&gt;&lt;div&gt;- rating : char&lt;/div&gt;" style="text;html=1;strokeColor=none;fillColor=none;align=left;verticalAlign=middle;spacingLeft=4;spacingRight=4;overflow=hidden;rotatable=0;points=[[0,0.5],[1,0.5]];portConstraint=eastwest;whiteSpace=wrap;" vertex="1" parent="dNZLmfn_dR03rivUmkf9-10">
          <mxGeometry y="30" width="250" height="70" as="geometry" />
        </mxCell>
        <mxCell id="dNZLmfn_dR03rivUmkf9-15" value="" style="line;strokeWidth=1;fillColor=none;align=left;verticalAlign=middle;spacingTop=-1;spacingLeft=3;spacingRight=3;rotatable=0;labelPosition=right;points=[];portConstraint=eastwest;" vertex="1" parent="dNZLmfn_dR03rivUmkf9-10">
          <mxGeometry y="100" width="250" height="8" as="geometry" />
        </mxCell>
        <mxCell id="dNZLmfn_dR03rivUmkf9-17" value="+ operator&amp;lt;&amp;lt;(ostream&amp;amp;, games&amp;amp;) : ostream&lt;div&gt;+ operator==(games&amp;amp;, string&amp;amp;) : bool&lt;/div&gt;&lt;div&gt;+ setTitle(string) : void&lt;/div&gt;&lt;div&gt;+ setReleaseDate(string) : void&lt;/div&gt;&lt;div&gt;+ setPrice(double) : void&lt;/div&gt;&lt;div&gt;+ setRating(char) : void&lt;/div&gt;&lt;div&gt;&lt;br&gt;&lt;/div&gt;&lt;div&gt;+ getTitle() : string&lt;/div&gt;&lt;div&gt;+ getReleaseDate() : string&lt;/div&gt;&lt;div&gt;+ getPrice() : double&lt;/div&gt;&lt;div&gt;+ getRating() : char&lt;/div&gt;" style="text;html=1;strokeColor=none;fillColor=none;align=left;verticalAlign=middle;spacingLeft=4;spacingRight=4;overflow=hidden;rotatable=0;points=[[0,0.5],[1,0.5]];portConstraint=eastwest;whiteSpace=wrap;" vertex="1" parent="dNZLmfn_dR03rivUmkf9-10">
          <mxGeometry y="108" width="250" height="172" as="geometry" />
        </mxCell>
        <mxCell id="dNZLmfn_dR03rivUmkf9-18" value="gameCollection.h" style="swimlane;fontStyle=0;align=center;verticalAlign=top;childLayout=stackLayout;horizontal=1;startSize=30;horizontalStack=0;resizeParent=1;resizeParentMax=0;resizeLast=0;collapsible=0;marginBottom=0;html=1;whiteSpace=wrap;" vertex="1" parent="1">
          <mxGeometry x="400" y="110" width="290" height="120" as="geometry" />
        </mxCell>
        <mxCell id="dNZLmfn_dR03rivUmkf9-19" value="&amp;nbsp;- gameCollection&amp;lt;games&amp;gt; : vector" style="text;html=1;strokeColor=none;fillColor=none;align=left;verticalAlign=middle;spacingLeft=4;spacingRight=4;overflow=hidden;rotatable=0;points=[[0,0.5],[1,0.5]];portConstraint=eastwest;whiteSpace=wrap;" vertex="1" parent="dNZLmfn_dR03rivUmkf9-18">
          <mxGeometry y="30" width="290" height="20" as="geometry" />
        </mxCell>
        <mxCell id="dNZLmfn_dR03rivUmkf9-20" value="" style="line;strokeWidth=1;fillColor=none;align=left;verticalAlign=middle;spacingTop=-1;spacingLeft=3;spacingRight=3;rotatable=0;labelPosition=right;points=[];portConstraint=eastwest;" vertex="1" parent="dNZLmfn_dR03rivUmkf9-18">
          <mxGeometry y="50" width="290" height="8" as="geometry" />
        </mxCell>
        <mxCell id="dNZLmfn_dR03rivUmkf9-21" value="- operator&amp;lt;&amp;lt;(ostream&amp;amp;, gameCollection&amp;amp;) : ostream&lt;div&gt;+ addGame() : void&lt;/div&gt;&lt;div&gt;+ displayGames() : void&lt;/div&gt;&lt;div&gt;+ removeGame(string) : void&lt;/div&gt;" style="text;html=1;strokeColor=none;fillColor=none;align=left;verticalAlign=middle;spacingLeft=4;spacingRight=4;overflow=hidden;rotatable=0;points=[[0,0.5],[1,0.5]];portConstraint=eastwest;whiteSpace=wrap;" vertex="1" parent="dNZLmfn_dR03rivUmkf9-18">
          <mxGeometry y="58" width="290" height="62" as="geometry" />
        </mxCell>
      </root>
    </mxGraphModel>
  </diagram>
</mxfile>
